# Blender v2.77 (sub 0) OBJ File: ''
# www.blender.org
mtllib LowPolyTree.mtl
o Tree_Untitled.001
v -0.051057 -0.102008 -0.037104
v 0.019446 -0.102008 -0.060012
v -0.051057 -0.102008 0.037027
v 0.019446 -0.102008 0.059935
v 0.063020 -0.102008 -0.000039
v 0.021200 -0.221569 -0.068348
v -0.058486 -0.211639 -0.042256
v -0.058486 -0.211639 0.042178
v 0.021200 -0.221569 0.068270
v 0.070448 -0.227706 -0.000039
v -0.047607 0.054313 -0.035132
v 0.018632 0.054277 -0.056820
v -0.047607 0.054313 0.035054
v 0.018632 0.054277 0.056743
v 0.059569 0.054254 -0.000039
v 0.018581 -0.221337 -0.057958
v -0.048970 -0.212806 -0.035835
v 0.060330 -0.226609 -0.000039
v 0.018581 -0.221337 0.057880
v -0.048970 -0.212806 0.035757
v 0.019190 -0.216519 -0.057958
v -0.048362 -0.207988 -0.035835
v 0.060939 -0.221791 -0.000039
v 0.019190 -0.216519 0.057880
v -0.048362 -0.207988 0.035757
v -0.119328 0.233015 -0.119647
v -0.119328 0.233015 0.119569
v 0.119888 0.233015 0.119569
v 0.119888 0.233015 -0.119647
v 0.000280 0.523446 -0.000039
v 0.000280 0.240624 -0.108737
v 0.108978 0.240624 -0.000039
v 0.000280 0.240624 0.108659
v -0.108418 0.240624 -0.000039
v -0.073892 0.343342 -0.000039
v -0.059524 0.378231 0.059765
v -0.059524 0.378231 -0.059843
v 0.000280 0.343342 0.074133
v 0.060084 0.378231 0.059765
v 0.074452 0.343342 -0.000039
v 0.060084 0.378231 -0.059843
v 0.000280 0.343342 -0.074211
v 0.000280 0.240624 -0.000039
v -0.146259 0.105093 -0.146578
v -0.146259 0.105093 0.146501
v 0.146819 0.105093 0.146501
v 0.146819 0.105093 -0.146578
v 0.000280 0.460919 -0.000039
v 0.000280 0.114416 -0.133212
v 0.133453 0.114415 -0.000039
v 0.000280 0.114415 0.133134
v -0.132893 0.114415 -0.000039
v -0.090593 0.240262 -0.000039
v -0.072989 0.283006 0.073231
v -0.072989 0.283006 -0.073308
v 0.000280 0.240262 0.090834
v 0.073550 0.283006 0.073231
v 0.091153 0.240262 -0.000039
v 0.073550 0.283006 -0.073308
v 0.000280 0.240262 -0.090912
v 0.000280 0.114415 -0.000039
v -0.184602 -0.076449 -0.184921
v -0.184602 -0.076449 0.184843
v 0.185162 -0.076449 0.184843
v 0.185162 -0.076449 -0.184921
v 0.000280 0.372481 -0.000039
v 0.000280 -0.064687 -0.168057
v 0.168299 -0.064687 -0.000039
v 0.000280 -0.064687 0.167980
v -0.167738 -0.064687 -0.000039
v -0.114370 0.094088 -0.000039
v -0.092161 0.148016 0.092402
v -0.092161 0.148016 -0.092480
v 0.000280 0.094088 0.114612
v 0.092721 0.148016 0.092402
v 0.114931 0.094088 -0.000039
v 0.092721 0.148016 -0.092480
v 0.000280 0.094088 -0.114689
v 0.000280 -0.042801 -0.000039
v 0.000280 -0.042801 0.002199
v 0.002518 -0.042801 -0.000039
v -0.000184 -0.042801 -0.000039
v 0.000280 -0.042801 0.000566
v 0.001098 -0.042801 0.001382
v 0.021200 -0.221569 -0.068348
v -0.058486 -0.211639 -0.042256
v -0.058486 -0.211639 0.042178
v 0.021200 -0.221569 0.068270
v 0.070448 -0.227706 -0.000039
v 0.019729 -0.221386 -0.061747
v -0.052256 -0.212416 -0.038177
v -0.052256 -0.212416 0.038099
v 0.019729 -0.221386 0.061669
v 0.064219 -0.226930 -0.000039
v 0.019729 -0.226250 -0.061747
v -0.052256 -0.217280 -0.038177
v -0.000167 -0.223770 -0.000039
v -0.052256 -0.217280 0.038099
v 0.019729 -0.226250 0.061669
v 0.064219 -0.231794 -0.000039
v 0.023149 -0.297415 -0.076506
v -0.066743 -0.297415 -0.047298
v -0.066743 -0.297415 0.047221
v 0.023149 -0.297415 0.076429
v 0.078706 -0.297415 -0.000039
v 0.021200 -0.221569 -0.068348
v -0.058486 -0.211639 -0.042256
v -0.058486 -0.211639 0.042178
v 0.021200 -0.221569 0.068270
v 0.070448 -0.227706 -0.000039
vt 0.2262 0.1680
vt 0.0646 0.3039
vt 0.0524 0.1867
vt 0.2280 0.3052
vt 0.4058 0.3103
vt 0.4084 0.1756
vt 0.5852 0.3116
vt 0.5834 0.1760
vt 0.7656 0.1705
vt 0.7634 0.3054
vt 0.9356 0.1907
vt 0.9218 0.2993
vt 0.2204 0.4442
vt 0.0523 0.4118
vt 0.4027 0.4511
vt 0.5868 0.4345
vt 0.7721 0.4152
vt 0.9421 0.4013
vt 0.7229 0.6138
vt 0.8446 0.6538
vt 0.7229 0.4856
vt 0.9185 0.5499
vt 0.8449 0.4459
vt 0.8454 0.6581
vt 0.7121 0.6198
vt 0.7187 0.6174
vt 0.8468 0.6635
vt 0.9248 0.5502
vt 0.9310 0.5500
vt 0.8451 0.4420
vt 0.8457 0.4378
vt 0.7121 0.4802
vt 0.7184 0.4833
vt 0.7049 0.6261
vt 0.8490 0.6739
vt 0.9376 0.5500
vt 0.8485 0.4270
vt 0.7059 0.4725
vt 0.2478 0.7517
vt 0.1678 0.8317
vt 0.0877 0.7517
vt 0.2478 0.9118
vt 0.0877 0.9118
vt 0.1678 0.7325
vt 0.1678 0.9310
vt 0.2671 0.8317
vt 0.0685 0.8317
vt 0.0077 0.9918
vt 0.0077 0.6716
vt 0.0223 0.8317
vt 0.3279 0.9918
vt 0.1678 0.9772
vt 0.3279 0.6716
vt 0.3133 0.8317
vt 0.1678 0.6863
vt 0.1678 0.8317
vt 0.5778 0.7495
vt 0.4965 0.8308
vt 0.4153 0.7495
vt 0.5778 0.9120
vt 0.4153 0.9120
vt 0.4965 0.7300
vt 0.4965 0.9315
vt 0.5973 0.8308
vt 0.3957 0.8308
vt 0.3340 0.6683
vt 0.3340 0.9933
vt 0.6590 0.6683
vt 0.4965 0.6831
vt 0.6442 0.8308
vt 0.6590 0.9933
vt 0.4965 0.9784
vt 0.3488 0.8308
vt 0.4965 0.8308
vt 0.9089 0.7501
vt 0.8279 0.8310
vt 0.7469 0.7501
vt 0.9089 0.9120
vt 0.7469 0.9120
vt 0.8279 0.7306
vt 0.8279 0.9315
vt 0.9283 0.8310
vt 0.7275 0.8310
vt 0.6659 0.9930
vt 0.6659 0.6691
vt 0.9898 0.6691
vt 0.8279 0.6839
vt 0.9751 0.8310
vt 0.9898 0.9930
vt 0.8279 0.9782
vt 0.6807 0.8310
vt 0.8279 0.8310
vt 0.8279 0.8306
vt 0.8284 0.8310
vt 0.8279 0.8330
vt 0.8291 0.8317
vt 0.8298 0.8310
vt 0.8445 0.6541
vt 0.7227 0.6142
vt 0.8108 0.5496
vt 0.7227 0.4851
vt 0.8445 0.4452
vt 0.9198 0.5496
vt 0.8492 0.6741
vt 0.7049 0.6266
vt 0.7162 0.6193
vt 0.8465 0.6620
vt 0.7162 0.4812
vt 0.7049 0.4738
vt 0.8493 0.4264
vt 0.8465 0.4384
vt 0.9388 0.5502
vt 0.9272 0.5502
vt 0.7208 0.6163
vt 0.8453 0.6568
vt 0.7208 0.4841
vt 0.8453 0.4437
vt 0.9218 0.5502
vt 0.2196 0.0107
vt 0.0524 0.1867
vt 0.0015 0.0459
vt 0.2262 0.1680
vt 0.4159 0.0346
vt 0.4084 0.1756
vt 0.5834 0.1760
vt 0.5755 0.0346
vt 0.7774 0.0147
vt 0.7656 0.1705
vt 0.9356 0.1907
vt 0.9958 0.0562
vn -0.3056 0.0634 -0.9500
vn -0.3081 0.0389 -0.9505
vn -0.3058 0.0635 -0.9500
vn -0.3081 0.0390 -0.9505
vn -0.9991 0.0424 -0.0000
vn -0.9977 0.0676 -0.0000
vn -0.9991 0.0423 -0.0000
vn -0.3081 0.0388 0.9505
vn -0.3081 0.0390 0.9505
vn -0.3053 0.0631 0.9502
vn -0.3057 0.0635 0.9500
vn 0.8103 0.0502 0.5839
vn 0.8102 0.0326 0.5852
vn 0.8103 0.0501 0.5838
vn 0.8102 0.0327 0.5852
vn 0.8105 0.0500 -0.5837
vn 0.8102 0.0327 -0.5852
vn 0.8103 0.0502 -0.5839
vn -0.3101 0.0183 -0.9505
vn -0.3100 0.0183 -0.9506
vn -0.9998 0.0221 -0.0000
vn -0.3100 0.0183 0.9506
vn -0.3082 0.0388 0.9505
vn -0.3099 0.0184 0.9506
vn -0.3100 0.0183 0.9505
vn 0.8099 0.0170 0.5863
vn 0.8100 0.0171 0.5862
vn 0.8100 0.0170 0.5862
vn 0.8100 0.0171 -0.5861
vn 0.8100 0.0171 -0.5862
vn -0.1253 -0.9921 0.0000
vn -0.1256 -0.9921 -0.0036
vn -0.1255 -0.9921 -0.0036
vn -0.1115 -0.9937 -0.0095
vn -0.1114 -0.9937 -0.0095
vn -0.1114 -0.9937 0.0095
vn -0.1115 -0.9937 0.0095
vn -0.1256 -0.9921 0.0036
vn -0.1255 -0.9921 0.0036
vn -0.1217 -0.9926 0.0000
vn 0.3066 -0.0387 0.9511
vn -0.8026 0.1014 0.5878
vn -0.8026 0.1014 -0.5878
vn 0.3066 -0.0387 -0.9511
vn 0.9921 -0.1253 0.0000
vn -0.9247 0.3808 -0.0000
vn 0.0000 0.3808 0.9247
vn 0.9247 0.3808 0.0000
vn 0.0000 0.3808 -0.9247
vn -0.0660 0.3179 -0.9458
vn 0.0660 0.3179 -0.9458
vn 0.9458 0.3179 -0.0660
vn 0.9458 0.3179 0.0660
vn 0.0660 0.3179 0.9458
vn -0.0660 0.3179 0.9458
vn -0.9458 0.3179 0.0660
vn -0.9458 0.3179 -0.0660
vn 0.0635 -0.9980 0.0000
vn 0.0000 -0.9980 -0.0635
vn -0.0000 -0.9980 0.0635
vn -0.0635 -0.9980 0.0000
vn 0.0511 -0.9903 0.1291
vn 0.0512 -0.9903 0.1291
vn 0.0000 -1.0000 0.0000
vn -0.0505 -0.9903 0.1297
vn -0.0508 -0.9903 0.1297
vn -0.0507 -0.9903 0.1297
vn -0.1307 -0.9901 0.0511
vn -0.1300 -0.9902 -0.0515
vn -0.1300 -0.9902 -0.0517
vn -0.1300 -0.9902 -0.0516
vn 0.0511 -0.9901 -0.1307
vn -0.0511 -0.9902 -0.1303
vn -0.0513 -0.9901 -0.1303
vn -0.0515 -0.9901 -0.1303
vn 0.1297 -0.9902 -0.0509
vn 0.1297 -0.9902 -0.0510
vn 0.1297 -0.9903 -0.0509
vn 0.1297 -0.9903 -0.0507
vn 0.1294 -0.9903 0.0512
vn 0.1237 0.9923 0.0000
vn 0.3112 -0.0000 0.9504
vn 1.0000 0.0000 0.0000
vn 0.3112 0.0000 -0.9504
vn -0.8112 -0.0000 -0.5848
vn -0.8112 0.0000 0.5848
vn -0.3041 0.0893 -0.9485
vn -0.3040 0.0893 -0.9485
vn -0.9954 0.0958 0.0000
vn -0.3043 0.0896 0.9483
vn -0.3041 0.0893 0.9485
vn -0.3041 0.0894 0.9484
vn 0.8086 0.0893 0.5816
vn 0.8086 0.0892 0.5816
vn 0.8086 0.0893 -0.5816
vn 0.8086 0.0894 -0.5815
usemtl lambert2
s 1
f 7/1/1 2/2/2 6/3/3
f 2/2/2 7/1/1 1/4/4
f 3/5/5 7/1/6 8/6/6
f 7/1/6 3/5/5 1/4/7
f 4/7/8 3/5/9 8/6/10
f 4/7/8 8/6/10 9/8/11
f 10/9/12 5/10/13 9/8/14
f 4/7/15 9/8/14 5/10/13
f 6/11/16 5/10/17 10/9/18
f 5/10/17 6/11/16 2/12/17
f 1/4/4 11/13/19 2/2/2
f 2/2/2 11/13/19 12/14/20
f 13/15/21 1/4/7 3/5/5
f 1/4/7 13/15/21 11/13/21
f 13/15/22 4/7/23 14/16/24
f 4/7/8 13/15/25 3/5/9
f 5/10/13 14/16/26 4/7/15
f 14/16/27 5/10/13 15/17/28
f 2/12/17 12/18/29 5/10/17
f 15/17/30 5/10/17 12/18/29
f 22/19/31 21/20/31 25/21/31
f 21/20/31 23/22/31 25/21/31
f 23/22/31 24/23/31 25/21/31
f 6/24/32 17/25/32 7/26/33
f 17/25/32 6/24/32 16/27/32
f 10/28/34 16/27/34 6/24/34
f 16/27/34 10/28/34 18/29/35
f 10/28/36 9/30/37 19/31/37
f 10/28/36 19/31/37 18/29/36
f 20/32/38 9/30/38 8/33/39
f 9/30/38 20/32/38 19/31/38
f 17/25/40 20/32/40 8/33/40
f 8/33/40 7/26/40 17/25/40
f 22/34/41 16/27/41 21/35/41
f 16/27/41 22/34/41 17/25/41
f 23/36/42 16/27/42 18/29/42
f 16/27/42 23/36/42 21/35/42
f 23/36/43 19/31/43 24/37/43
f 19/31/43 23/36/43 18/29/43
f 20/32/44 24/37/44 19/31/44
f 24/37/44 20/32/44 25/38/44
f 22/34/45 25/38/45 20/32/45
f 20/32/45 17/25/45 22/34/45
f 36/39/46 30/40/46 37/41/46
f 39/42/47 30/40/47 36/39/47
f 30/40/48 39/42/48 41/43/48
f 30/40/49 41/43/49 37/41/49
f 36/39/46 37/41/46 35/44/46
f 41/43/48 39/42/48 40/45/48
f 36/39/47 38/46/47 39/42/47
f 37/41/49 41/43/49 42/47/49
f 29/48/49 42/47/49 41/43/49
f 40/45/48 29/48/48 41/43/48
f 26/49/46 35/44/46 37/41/46
f 42/47/49 26/49/49 37/41/49
f 42/47/50 29/48/50 31/50/50
f 26/49/51 42/47/51 31/50/51
f 28/51/48 40/45/48 39/42/48
f 38/46/47 28/51/47 39/42/47
f 40/45/52 28/51/52 32/52/52
f 29/48/53 40/45/53 32/52/53
f 35/44/46 27/53/46 36/39/46
f 38/46/54 27/53/54 33/54/54
f 27/53/47 38/46/47 36/39/47
f 28/51/55 38/46/55 33/54/55
f 35/44/56 26/49/56 34/55/56
f 27/53/57 35/44/57 34/55/57
f 43/56/58 26/49/58 31/50/58
f 43/56/59 27/53/59 34/55/59
f 43/56/60 29/48/60 32/52/60
f 43/56/61 28/51/61 33/54/61
f 29/48/61 43/56/61 31/50/61
f 26/49/60 43/56/60 34/55/60
f 27/53/58 43/56/58 33/54/58
f 28/51/59 43/56/59 32/52/59
f 54/57/46 48/58/46 55/59/46
f 57/60/47 48/58/47 54/57/47
f 48/58/48 57/60/48 59/61/48
f 48/58/49 59/61/49 55/59/49
f 54/57/46 55/59/46 53/62/46
f 59/61/48 57/60/48 58/63/48
f 56/64/47 57/60/47 54/57/47
f 55/59/49 59/61/49 60/65/49
f 44/66/46 53/62/46 55/59/46
f 60/65/49 44/66/49 55/59/49
f 47/67/49 60/65/49 59/61/49
f 58/63/48 47/67/48 59/61/48
f 53/62/46 45/68/46 54/57/46
f 53/62/56 44/66/56 52/69/56
f 56/64/54 45/68/54 51/70/54
f 45/68/47 56/64/47 54/57/47
f 46/71/48 58/63/48 57/60/48
f 58/63/52 46/71/52 50/72/52
f 60/65/50 47/67/50 49/73/50
f 45/68/57 53/62/57 52/69/57
f 56/64/47 46/71/47 57/60/47
f 46/71/55 56/64/55 51/70/55
f 47/67/53 58/63/53 50/72/53
f 44/66/51 60/65/51 49/73/51
f 44/66/60 61/74/60 52/69/60
f 61/74/59 45/68/59 52/69/59
f 47/67/61 61/74/61 49/73/61
f 61/74/61 46/71/61 51/70/61
f 61/74/58 44/66/58 49/73/58
f 46/71/59 61/74/59 50/72/59
f 61/74/60 47/67/60 50/72/60
f 45/68/58 61/74/58 51/70/58
f 72/75/46 66/76/46 73/77/46
f 75/78/47 66/76/47 72/75/47
f 66/76/48 75/78/48 77/79/48
f 66/76/49 77/79/49 73/77/49
f 72/75/46 73/77/46 71/80/46
f 77/79/48 75/78/48 76/81/48
f 72/75/47 74/82/47 75/78/47
f 73/77/49 77/79/49 78/83/49
f 65/84/49 78/83/49 77/79/49
f 76/81/48 65/84/48 77/79/48
f 62/85/46 71/80/46 73/77/46
f 78/83/49 62/85/49 73/77/49
f 71/80/46 63/86/46 72/75/46
f 71/80/56 62/85/56 70/87/56
f 74/82/54 63/86/54 69/88/54
f 63/86/47 74/82/47 72/75/47
f 64/89/48 76/81/48 75/78/48
f 76/81/52 64/89/52 68/90/52
f 78/83/50 65/84/50 67/91/50
f 63/86/57 71/80/57 70/87/57
f 74/82/47 64/89/47 75/78/47
f 64/89/55 74/82/55 69/88/55
f 65/84/53 76/81/53 68/90/53
f 62/85/51 78/83/51 67/91/51
f 67/91/62 79/92/62 82/93/62
f 82/93/62 62/85/63 67/91/62
f 83/94/64 82/93/64 79/92/64
f 79/92/65 67/91/66 81/95/65
f 81/95/65 67/91/66 65/84/67
f 84/96/64 79/92/64 81/95/64
f 79/92/64 84/96/64 83/94/64
f 81/95/68 65/84/68 68/90/68
f 68/90/69 84/96/70 81/95/70
f 84/96/70 68/90/69 64/89/71
f 63/86/72 80/97/72 69/88/72
f 64/89/73 69/88/74 84/96/75
f 84/96/75 69/88/74 80/97/75
f 83/94/64 84/96/64 80/97/64
f 80/97/76 70/87/77 82/93/78
f 70/87/77 80/97/76 63/86/79
f 80/97/76 82/93/78 83/94/78
f 62/85/80 82/93/80 70/87/80
f 95/98/81 96/99/81 97/100/81
f 96/99/81 98/101/81 97/100/81
f 98/101/81 99/102/81 97/100/81
f 99/102/81 100/103/81 97/100/81
f 100/103/81 95/98/81 97/100/81
f 85/104/81 86/105/81 91/106/81
f 85/104/81 91/106/81 90/107/81
f 92/108/81 86/105/81 87/109/81
f 86/105/81 92/108/81 91/106/81
f 92/108/81 88/110/81 93/111/81
f 88/110/81 92/108/81 87/109/81
f 89/112/81 93/111/81 88/110/81
f 93/111/81 89/112/81 94/113/81
f 90/107/81 89/112/81 85/104/81
f 89/112/81 90/107/81 94/113/81
f 96/114/82 95/115/82 90/107/82
f 90/107/82 91/106/82 96/114/82
f 98/116/83 91/106/83 92/108/83
f 91/106/83 98/116/83 96/114/83
f 98/116/84 93/111/84 99/117/84
f 93/111/84 98/116/84 92/108/84
f 99/117/85 94/113/85 100/118/85
f 94/113/85 99/117/85 93/111/85
f 95/115/86 100/118/86 94/113/86
f 94/113/86 90/107/86 95/115/86
f 102/119/87 106/120/87 101/121/87
f 106/120/87 102/119/88 107/122/87
f 103/123/89 107/122/89 102/119/89
f 107/122/89 103/123/89 108/124/89
f 109/125/90 108/124/91 103/123/92
f 109/125/90 103/123/92 104/126/91
f 109/125/93 105/127/93 110/128/93
f 105/127/93 109/125/93 104/126/94
f 110/128/95 105/127/96 106/129/96
f 105/127/96 101/130/95 106/129/96
